<?xml version="1.0" standalone="no"?>
<!DOCTYPE svg PUBLIC "-//W3C//DTD SVG 20010904//EN"
 "http://www.w3.org/TR/2001/REC-SVG-20010904/DTD/svg10.dtd">
<svg version="1.0" xmlns="http://www.w3.org/2000/svg"
 width="1264.000000pt" height="1264.000000pt" viewBox="0 0 1264.000000 1264.000000"
 preserveAspectRatio="xMidYMid meet">
<metadata>
Created by potrace 1.11, written by Peter Selinger 2001-2013
</metadata>
<g transform="translate(0.000000,1264.000000) scale(0.100000,-0.100000)"
fill="#000000" stroke="none">
<path d="M5998 11160 c-193 -15 -322 -31 -498 -61 -1235 -211 -2344 -893
-3098 -1906 -107 -144 -215 -308 -296 -448 -31 -55 -64 -111 -72 -125 -68
-118 -179 -355 -254 -545 -178 -449 -294 -953 -327 -1422 -15 -208 -8 -762 12
-884 2 -13 6 -46 9 -74 3 -27 8 -59 10 -70 2 -11 7 -47 10 -80 19 -156 103
-525 167 -725 31 -98 111 -322 134 -375 131 -303 213 -466 346 -688 319 -529
756 -1013 1254 -1387 586 -440 1248 -737 1970 -884 122 -25 285 -51 385 -61
30 -3 64 -8 75 -10 126 -26 848 -26 1005 -1 14 3 52 7 85 11 335 35 783 143
1116 269 543 205 1008 474 1439 835 877 734 1473 1752 1674 2861 109 602 108
1218 -5 1804 -29 154 -36 186 -59 277 -445 1755 -1814 3119 -3565 3554 -99 24
-191 46 -205 49 -14 2 -63 11 -110 19 -75 14 -140 24 -205 32 -56 8 -217 26
-265 31 -92 9 -629 12 -732 4z"/>
</g>
</svg>
